{
  "accessors": [
    {
      "bufferView": 2,
      "componentType": 5126,
      "count": 8223,
      "max": [
        0.44842401146888733,
        0.5028989911079407,
        -0.00045900000259280205
      ],
      "min": [
        -0.4516170024871826,
        -0.4431209862232208,
        -1.117751955986023
      ],
      "type": "VEC3"
    },
    {
      "bufferView": 2,
      "byteOffset": 98676,
      "componentType": 5126,
      "count": 8223,
      "max": [
        1.0,
        0.9991629719734192,
        0.999969482421875
      ],
      "min": [
        -0.9999762773513794,
        -0.9999971389770508,
        -1.0
      ],
      "type": "VEC3"
    },
    {
      "bufferView": 1,
      "componentType": 5126,
      "count": 8223,
      "max": [
        0.9995689988136292,
        0.9995830059051514
      ],
      "min": [
        0.0004309999931138009,
        0.0004169940948486328
      ],
      "type": "VEC2"
    },
    {
      "bufferView": 0,
      "componentType": 5125,
      "count": 39210,
      "type": "SCALAR"
    }
  ],
  "asset": {
    "extras": {
      "author": "ARTEL_3D (https://sketchfab.com/artel_3D)",
      "license": "CC-BY-4.0 (http://creativecommons.org/licenses/by/4.0/)",
      "source": "https://sketchfab.com/3d-models/boxing-headgear-helmet-low-poly-498387769b0347f292ab1bdbddbfe719",
      "title": "Boxing Headgear Helmet (Low Poly)"
    },
    "generator": "Sketchfab-16.99.0",
    "version": "2.0"
  },
  "bufferViews": [
    {
      "buffer": 0,
      "byteLength": 156840,
      "name": "floatBufferViews",
      "target": 34963
    },
    {
      "buffer": 0,
      "byteLength": 65784,
      "byteOffset": 156840,
      "byteStride": 8,
      "name": "floatBufferViews",
      "target": 34962
    },
    {
      "buffer": 0,
      "byteLength": 197352,
      "byteOffset": 222624,
      "byteStride": 12,
      "name": "floatBufferViews",
      "target": 34962
    }
  ],
  "buffers": [
    {
      "byteLength": 419976,
      "uri": "scene.bin"
    }
  ],
  "extensionsRequired": [
    "KHR_materials_pbrSpecularGlossiness"
  ],
  "extensionsUsed": [
    "KHR_materials_pbrSpecularGlossiness"
  ],
  "images": [
    {
      "uri": "textures/Material.001_diffuse.png"
    }
  ],
  "materials": [
    {
      "doubleSided": true,
      "extensions": {
        "KHR_materials_pbrSpecularGlossiness": {
          "diffuseFactor": [
            0.17933219808254894,
            0.17933219808254894,
            0.17933219808254894,
            1.0
          ],
          "diffuseTexture": {
            "index": 0
          },
          "glossinessFactor": 0.5535906984287381,
          "specularFactor": [
            0.010915872926763848,
            0.010915872926763848,
            0.010915872926763848
          ]
        }
      },
      "name": "Material.001"
    }
  ],
  "meshes": [
    {
      "name": "Object_0",
      "primitives": [
        {
          "attributes": {
            "NORMAL": 1,
            "POSITION": 0,
            "TEXCOORD_0": 2
          },
          "indices": 3,
          "material": 0,
          "mode": 4
        }
      ]
    }
  ],
  "nodes": [
    {
      "children": [
        1
      ],
      "matrix": [
        0.2552342116832733,
        0.0,
        0.0,
        0.0,
        0.0,
        5.667337969656423e-17,
        -0.2552342116832733,
        0.0,
        0.0,
        0.2552342116832733,
        5.667337969656423e-17,
        0.0,
        0.0,
        0.0,
        0.0,
        1.0
      ],
      "name": "Sketchfab_model"
    },
    {
      "children": [
        2
      ],
      "name": "root"
    },
    {
      "children": [
        3
      ],
      "matrix": [
        1.0,
        0.0,
        0.0,
        0.0,
        0.0,
        2.220446049250313e-16,
        1.0,
        0.0,
        0.0,
        -1.0,
        2.220446049250313e-16,
        0.0,
        0.0,
        0.0,
        0.0,
        1.0
      ],
      "name": "GLTF_SceneRootNode"
    },
    {
      "children": [
        4
      ],
      "matrix": [
        1.0,
        0.0,
        0.0,
        0.0,
        0.0,
        0.0,
        1.0,
        0.0,
        0.0,
        -1.0,
        0.0,
        0.0,
        0.0,
        0.0,
        0.0,
        1.0
      ],
      "name": "material_0"
    },
    {
      "mesh": 0,
      "name": "Object_4"
    }
  ],
  "samplers": [
    {
      "magFilter": 9729,
      "minFilter": 9987,
      "wrapS": 10497,
      "wrapT": 10497
    }
  ],
  "scene": 0,
  "scenes": [
    {
      "name": "Sketchfab_Scene",
      "nodes": [
        0
      ]
    }
  ],
  "textures": [
    {
      "sampler": 0,
      "source": 0
    }
  ]
}
