{
  "accessors": [
    {
      "bufferView": 3,
      "componentType": 5126,
      "count": 2201,
      "max": [
        0.4173976182937622,
        0.8190687894821167,
        0.4368201196193695
      ],
      "min": [
        -0.4138168394565582,
        -0.9581015706062317,
        -0.3943942189216614
      ],
      "type": "VEC3"
    },
    {
      "bufferView": 3,
      "byteOffset": 26412,
      "componentType": 5126,
      "count": 2201,
      "max": [
        0.9999900460243225,
        1.0,
        0.9999900460243225
      ],
      "min": [
        -0.9999900460243225,
        -0.9999679923057556,
        -0.9999900460243225
      ],
      "type": "VEC3"
    },
    {
      "bufferView": 4,
      "componentType": 5126,
      "count": 2201,
      "max": [
        0.3764705955982208,
        0.239215686917305,
        0.27843138575553894,
        1.0
      ],
      "min": [
        0.19607843458652496,
        0.14509804546833038,
        0.0117647061124444,
        1.0
      ],
      "type": "VEC4"
    },
    {
      "bufferView": 2,
      "componentType": 5126,
      "count": 2201,
      "max": [
        0.8085938096046448,
        0.977806031703949
      ],
      "min": [
        0.07421875,
        0.2587774991989136
      ],
      "type": "VEC2"
    },
    {
      "bufferView": 1,
      "componentType": 5125,
      "count": 11280,
      "type": "SCALAR"
    },
    {
      "bufferView": 5,
      "componentType": 5126,
      "count": 57,
      "max": [
        7.697005271911621,
        7.358359336853027,
        7.696979999542236,
        0.0,
        7.171103477478027,
        7.697005271911621,
        1.0446245670318604,
        0.0,
        7.696979999542236,
        3.481058359146118,
        7.697006702423096,
        0.0,
        6.520017623901367,
        0.48737266659736633,
        3.539750337600708,
        1.0
      ],
      "min": [
        -7.268310070037842,
        -7.242696762084961,
        -1.7090189456939697,
        0.0,
        -7.591442584991455,
        -7.696979999542236,
        -7.469242572784424,
        0.0,
        -0.4318818747997284,
        -1.870707631111145,
        -4.475940841075499e-06,
        0.0,
        -6.627180576324463,
        -6.251572608947754,
        -3.092371940612793,
        1.0
      ],
      "type": "MAT4"
    },
    {
      "bufferView": 0,
      "componentType": 5123,
      "count": 2201,
      "type": "VEC4"
    },
    {
      "bufferView": 4,
      "byteOffset": 35216,
      "componentType": 5126,
      "count": 2201,
      "max": [
        1.0,
        0.4187946915626526,
        0.0,
        0.0
      ],
      "min": [
        0.5812053084373474,
        0.0,
        0.0,
        0.0
      ],
      "type": "VEC4"
    }
  ],
  "asset": {
    "extras": {
      "author": "CPG96 (https://sketchfab.com/CPG96)",
      "license": "CC-BY-4.0 (http://creativecommons.org/licenses/by/4.0/)",
      "source": "https://sketchfab.com/3d-models/punching-dummy-rec-room-9d36e9ed336b4b91b1a510eb1d5721ef",
      "title": "Punching Dummy (Rec Room)"
    },
    "generator": "Sketchfab-13.74.0",
    "version": "2.0"
  },
  "bufferViews": [
    {
      "buffer": 0,
      "byteLength": 17608,
      "byteStride": 8,
      "name": "shortBufferViews",
      "target": 34962
    },
    {
      "buffer": 0,
      "byteLength": 45120,
      "byteOffset": 17608,
      "name": "floatBufferViews",
      "target": 34963
    },
    {
      "buffer": 0,
      "byteLength": 17608,
      "byteOffset": 62728,
      "byteStride": 8,
      "name": "floatBufferViews",
      "target": 34962
    },
    {
      "buffer": 0,
      "byteLength": 52824,
      "byteOffset": 80336,
      "byteStride": 12,
      "name": "floatBufferViews",
      "target": 34962
    },
    {
      "buffer": 0,
      "byteLength": 70432,
      "byteOffset": 133160,
      "byteStride": 16,
      "name": "floatBufferViews",
      "target": 34962
    },
    {
      "buffer": 0,
      "byteLength": 3648,
      "byteOffset": 203592,
      "name": "floatBufferViews"
    }
  ],
  "buffers": [
    {
      "byteLength": 207240,
      "uri": "scene.bin"
    }
  ],
  "materials": [
    {
      "name": "material_atlas_86036_1",
      "pbrMetallicRoughness": {
        "metallicFactor": 0.0,
        "roughnessFactor": 0.5217110906955945
      }
    }
  ],
  "meshes": [
    {
      "name": "Object_0",
      "primitives": [
        {
          "attributes": {
            "COLOR_0": 2,
            "JOINTS_0": 6,
            "NORMAL": 1,
            "POSITION": 0,
            "TEXCOORD_0": 3,
            "WEIGHTS_0": 7
          },
          "indices": 4,
          "material": 0,
          "mode": 4
        }
      ]
    }
  ],
  "nodes": [
    {
      "children": [
        1
      ],
      "matrix": [
        0.8609594702720642,
        0.0,
        0.0,
        0.0,
        0.0,
        1.9117140543302473e-16,
        -0.8609594702720642,
        0.0,
        0.0,
        0.8609594702720642,
        1.9117140543302473e-16,
        0.0,
        0.0,
        0.0,
        0.0,
        1.0
      ],
      "name": "Sketchfab_model"
    },
    {
      "children": [
        2
      ],
      "name": "root"
    },
    {
      "children": [
        3
      ],
      "matrix": [
        1.0,
        0.0,
        0.0,
        0.0,
        0.0,
        2.220446049250313e-16,
        1.0,
        0.0,
        0.0,
        -1.0,
        2.220446049250313e-16,
        0.0,
        0.0,
        0.0,
        0.0,
        1.0
      ],
      "name": "GLTF_SceneRootNode"
    },
    {
      "children": [
        4
      ],
      "matrix": [
        0.12992066144943237,
        0.0,
        0.0,
        0.0,
        0.0,
        0.12992066144943237,
        0.0,
        0.0,
        0.0,
        0.0,
        0.12992066144943237,
        0.0,
        2.9665417969226837e-05,
        -0.08476421236991882,
        0.6496284604072571,
        1.0
      ],
      "name": "Armature_57"
    },
    {
      "children": [
        5,
        7,
        6
      ],
      "name": "GLTF_created_0"
    },
    {
      "children": [
        8
      ],
      "name": "GLTF_created_0_rootJoint"
    },
    {
      "name": "dummy_56"
    },
    {
      "mesh": 0,
      "name": "Object_7",
      "skin": 0
    },
    {
      "children": [
        9,
        51,
        54,
        61
      ],
      "name": "Hips_55",
      "rotation": [
        0.0,
        1.1920928955078125e-07,
        0.0,
        1.0
      ],
      "translation": [
        0.021184444427490234,
        0.16505789756774902,
        -3.7831201553344727
      ]
    },
    {
      "children": [
        10
      ],
      "name": "Spine_41",
      "translation": [
        4.4587977754417807e-10,
        1.4058876037597656,
        5.050765139458235e-09
      ]
    },
    {
      "children": [
        11,
        13,
        32
      ],
      "name": "Chest_40",
      "translation": [
        4.4587977754417807e-10,
        1.3105661869049072,
        5.050765139458235e-09
      ]
    },
    {
      "children": [
        12
      ],
      "name": "Neck_1",
      "translation": [
        4.4587977754417807e-10,
        1.6243700981140137,
        5.050765139458235e-09
      ]
    },
    {
      "name": "Head_0",
      "translation": [
        4.4587977754417807e-10,
        0.7704777717590332,
        5.050765139458235e-09
      ]
    },
    {
      "children": [
        14
      ],
      "name": "Left Shoulder_20",
      "rotation": [
        -0.07507933676242828,
        0.100833959877491,
        -0.6420460343360901,
        0.7562886476516724
      ],
      "scale": [
        1.0,
        1.0000001192092896,
        0.9999998807907104
      ],
      "translation": [
        1.338089816727006e-07,
        1.6243696212768555,
        2.0917772758366482e-07
      ]
    },
    {
      "children": [
        15
      ],
      "name": "Left Upper Arm_19",
      "rotation": [
        0.12561245262622833,
        0.005093826446682215,
        -0.2621462941169739,
        0.9568045139312744
      ],
      "scale": [
        0.9999999403953552,
        1.0000001192092896,
        1.0
      ],
      "translation": [
        -5.632699640045757e-09,
        1.8203729391098022,
        -3.1052238114170905e-07
      ]
    },
    {
      "children": [
        16
      ],
      "name": "Left Lower Arm_18",
      "rotation": [
        5.552323045776575e-08,
        7.35008143237792e-08,
        -0.12968410551548004,
        0.991555392742157
      ],
      "translation": [
        -5.781298000329116e-07,
        1.609078049659729,
        4.049139192829898e-07
      ]
    },
    {
      "children": [
        17,
        20,
        23,
        26,
        29
      ],
      "name": "Left Hand_17",
      "rotation": [
        7.900125886806109e-09,
        -5.0642025684055625e-08,
        -0.0200676117092371,
        0.9997986555099487
      ],
      "scale": [
        0.9999998211860657,
        0.9999999403953552,
        1.0
      ],
      "translation": [
        1.5296654964913614e-07,
        2.789595603942871,
        1.529184601167799e-08
      ]
    },
    {
      "children": [
        18
      ],
      "name": "Left Proximal Thumb_4",
      "rotation": [
        -2.1527410964949922e-09,
        3.764675398088002e-07,
        0.0029920402448624372,
        0.9999955296516418
      ],
      "scale": [
        1.0,
        0.9999998807907104,
        1.0
      ],
      "translation": [
        -0.2786685526371002,
        0.4793887138366699,
        -5.586572981997051e-08
      ]
    },
    {
      "children": [
        19
      ],
      "name": "Left Middle Thumb_3",
      "rotation": [
        1.596525009972538e-07,
        5.246850065532271e-09,
        -0.144972026348114,
        0.9894357919692993
      ],
      "scale": [
        0.9999999403953552,
        0.9999999403953552,
        1.0
      ],
      "translation": [
        7.262746635205986e-07,
        0.268951416015625,
        -5.2558601026930774e-08
      ]
    },
    {
      "name": "Left Tip Thumb_2",
      "rotation": [
        1.8102788601481734e-07,
        1.9599741563069983e-07,
        -0.13877403736114502,
        0.990324079990387
      ],
      "scale": [
        1.0000001192092896,
        1.0,
        1.0
      ],
      "translation": [
        6.592040335817728e-07,
        0.16995364427566528,
        -3.230845591062348e-09
      ]
    },
    {
      "children": [
        21
      ],
      "name": "Left Proximal Index_7",
      "rotation": [
        -2.152723777015808e-09,
        3.764675398088002e-07,
        0.0029920402448624372,
        0.9999955296516418
      ],
      "scale": [
        1.0,
        0.9999998807907104,
        1.0
      ],
      "translation": [
        -0.1337813436985016,
        0.6269382238388062,
        -6.1661076244945434e-09
      ]
    },
    {
      "children": [
        22
      ],
      "name": "Left Middle Index_6",
      "rotation": [
        1.6535155111796485e-07,
        4.4144329081063916e-08,
        -0.1449718177318573,
        0.9894357919692993
      ],
      "scale": [
        0.9999999403953552,
        0.9999999403953552,
        1.0
      ],
      "translation": [
        -5.394824142967991e-08,
        0.26895180344581604,
        1.0719720222596152e-07
      ]
    },
    {
      "name": "Left Tip Index_5",
      "rotation": [
        1.9990133637293184e-07,
        2.5281576654379023e-07,
        -0.13877421617507935,
        0.990324079990387
      ],
      "scale": [
        0.9999999403953552,
        0.9999999403953552,
        1.0
      ],
      "translation": [
        -2.334847835072651e-07,
        0.1699535846710205,
        8.079240387814934e-08
      ]
    },
    {
      "children": [
        24
      ],
      "name": "Left Proximal Middle_10",
      "rotation": [
        -2.1527402083165725e-09,
        3.764675398088002e-07,
        0.0029920402448624372,
        0.9999955296516418
      ],
      "scale": [
        1.0,
        0.9999998807907104,
        1.0
      ],
      "translation": [
        -0.044104255735874176,
        0.6547063589096069,
        2.4595863123977324e-08
      ]
    },
    {
      "children": [
        25
      ],
      "name": "Left Middle Middle_9",
      "rotation": [
        1.669166493911689e-07,
        5.482743148377267e-08,
        -0.14497162401676178,
        0.9894359111785889
      ],
      "scale": [
        0.9999998807907104,
        1.0,
        1.0
      ],
      "translation": [
        4.7124325419645174e-07,
        0.268951416015625,
        -2.711764466312161e-07
      ]
    },
    {
      "name": "Left Tip Middle_8",
      "rotation": [
        2.0140001311119704e-07,
        2.4212306470872136e-07,
        -0.13877442479133606,
        0.9903240203857422
      ],
      "translation": [
        6.738621891599905e-07,
        0.1699535846710205,
        3.769232748140894e-08
      ]
    },
    {
      "children": [
        27
      ],
      "name": "Left Proximal Ring_13",
      "rotation": [
        -2.2980854996745848e-09,
        4.250993583809759e-07,
        0.0029918465297669172,
        0.9999955296516418
      ],
      "scale": [
        1.0,
        0.9999998807907104,
        1.0
      ],
      "translation": [
        0.04609402269124985,
        0.6376960277557373,
        5.5535444687393465e-08
      ]
    },
    {
      "children": [
        28
      ],
      "name": "Left Ring _12",
      "rotation": [
        1.7396665441538062e-07,
        6.7091678879194205e-09,
        -0.14497141540050507,
        0.9894358515739441
      ],
      "scale": [
        0.9999997615814209,
        0.9999999403953552,
        1.0
      ],
      "translation": [
        9.858422345132567e-08,
        0.2689516544342041,
        -2.1872210709261708e-07
      ]
    },
    {
      "name": "Left Tip Ring_11",
      "rotation": [
        2.0140004153290647e-07,
        2.4212303628701193e-07,
        -0.13877448439598083,
        0.9903240203857422
      ],
      "scale": [
        0.9999998807907104,
        0.9999998807907104,
        1.0
      ],
      "translation": [
        -1.5042775203255587e-07,
        0.1699533313512802,
        -3.2891415457925177e-07
      ]
    },
    {
      "children": [
        30
      ],
      "name": "Left Proximal Little_16",
      "rotation": [
        -2.2980661817939563e-09,
        4.250993583809759e-07,
        0.002991831861436367,
        0.9999955296516418
      ],
      "scale": [
        0.9999999403953552,
        0.9999998807907104,
        1.0
      ],
      "translation": [
        0.1554991900920868,
        0.6117576360702515,
        9.306501880246287e-08
      ]
    },
    {
      "children": [
        31
      ],
      "name": "Left Middle Little_15",
      "rotation": [
        1.7396665441538062e-07,
        6.709130140336583e-09,
        -0.14497140049934387,
        0.9894358515739441
      ],
      "scale": [
        1.000000238418579,
        1.000000238418579,
        1.0
      ],
      "translation": [
        -9.54255483520683e-07,
        0.26895204186439514,
        -8.836443043946929e-08
      ]
    },
    {
      "name": "Left Tip Little_14",
      "rotation": [
        2.014000699546159e-07,
        2.4212303628701193e-07,
        -0.13877442479133606,
        0.9903240203857422
      ],
      "translation": [
        1.2696517615040648e-07,
        0.169953390955925,
        2.8342671498648997e-07
      ]
    },
    {
      "children": [
        33
      ],
      "name": "Right Shoulder.001_39",
      "rotation": [
        0.4800527095794678,
        -0.4712735712528229,
        0.3875141441822052,
        0.6303041577339172
      ],
      "scale": [
        0.9999999403953552,
        0.9999999403953552,
        0.9999999403953552
      ],
      "translation": [
        -0.718027651309967,
        1.6243700981140137,
        -0.7429147958755493
      ]
    },
    {
      "children": [
        34
      ],
      "name": "Right Upper Arm.001_38",
      "rotation": [
        0.11823348701000214,
        0.6622464060783386,
        0.30174520611763,
        0.6755741238594055
      ],
      "scale": [
        0.9999998807907104,
        1.0000001192092896,
        0.9999998807907104
      ],
      "translation": [
        -3.7260207363942754e-07,
        1.252494215965271,
        3.9438219801013474e-07
      ]
    },
    {
      "children": [
        35
      ],
      "name": "Right Lower Arm.001_37",
      "rotation": [
        -6.019735820927963e-08,
        4.00492098151517e-07,
        0.12968401610851288,
        0.991555392742157
      ],
      "scale": [
        0.9999999403953552,
        0.9999999403953552,
        1.0
      ],
      "translation": [
        6.730541599608841e-07,
        1.6090781688690186,
        6.107459427084905e-08
      ]
    },
    {
      "children": [
        36,
        39,
        42,
        45,
        48
      ],
      "name": "Right Hand.001_36",
      "rotation": [
        -1.4905007006404958e-08,
        -2.5567115358171577e-07,
        0.020067784935235977,
        0.9997986555099487
      ],
      "scale": [
        0.9999999403953552,
        0.9999999403953552,
        1.0
      ],
      "translation": [
        5.646235479161987e-09,
        2.789594888687134,
        1.4516582780288445e-07
      ]
    },
    {
      "children": [
        37
      ],
      "name": "Right Proximal Thumb.001_23",
      "rotation": [
        2.684829247812104e-09,
        4.102505215541896e-07,
        -0.0029922339599579573,
        0.9999955296516418
      ],
      "scale": [
        1.0,
        0.9999999403953552,
        1.0
      ],
      "translation": [
        0.2786688208580017,
        0.47938820719718933,
        4.376507263259555e-07
      ]
    },
    {
      "children": [
        38
      ],
      "name": "Right Middle Thumb.001_22",
      "rotation": [
        -1.861198057895308e-07,
        -2.343196570109285e-08,
        0.1449720561504364,
        0.9894357323646545
      ],
      "scale": [
        1.0,
        0.9999999403953552,
        1.0
      ],
      "translation": [
        2.6518284812482307e-07,
        0.26895174384117126,
        -7.918475120050061e-08
      ]
    },
    {
      "name": "Right Tip Thumb.001_21",
      "rotation": [
        -2.682809849829937e-07,
        6.665591740784294e-07,
        0.1387740522623062,
        0.990324079990387
      ],
      "scale": [
        1.0,
        1.0000001192092896,
        1.0
      ],
      "translation": [
        1.0001609780374565e-06,
        0.16995416581630707,
        -3.1673525313635764e-07
      ]
    },
    {
      "children": [
        40
      ],
      "name": "Right Proximal Index.001_26",
      "rotation": [
        2.684790834095452e-09,
        4.102505215541896e-07,
        -0.0029922043904662132,
        0.9999955296516418
      ],
      "scale": [
        0.9999999403953552,
        0.9999998211860657,
        1.0
      ],
      "translation": [
        0.13378222286701202,
        0.6269385814666748,
        3.670888304441178e-07
      ]
    },
    {
      "children": [
        41
      ],
      "name": "RightRight Middle Index.001_25",
      "rotation": [
        -2.1343173273180582e-07,
        1.6297472882342845e-07,
        0.14497177302837372,
        0.9894357919692993
      ],
      "scale": [
        1.0,
        1.0000001192092896,
        1.0
      ],
      "translation": [
        -2.2237938424041204e-07,
        0.26895126700401306,
        -2.697777290450176e-07
      ]
    },
    {
      "name": "Right Tip Index.001_24",
      "rotation": [
        -2.7788715328824765e-07,
        3.6195945085637504e-07,
        0.13877423107624054,
        0.990324079990387
      ],
      "scale": [
        0.9999999403953552,
        0.9999999403953552,
        1.0
      ],
      "translation": [
        -2.0273597556297318e-07,
        0.16995398700237274,
        8.790583905238236e-08
      ]
    },
    {
      "children": [
        43
      ],
      "name": "Right Proximal Middle.001_29",
      "rotation": [
        2.684790834095452e-09,
        4.1025054997589905e-07,
        -0.0029922043904662132,
        0.9999955296516418
      ],
      "scale": [
        0.9999999403953552,
        0.9999998211860657,
        1.0
      ],
      "translation": [
        0.04410345107316971,
        0.6547060012817383,
        3.234156906728458e-07
      ]
    },
    {
      "children": [
        44
      ],
      "name": "Right Middle Middle.001_28",
      "rotation": [
        -2.526638525068847e-07,
        4.307377992063266e-07,
        0.1449715793132782,
        0.9894358515739441
      ],
      "translation": [
        -8.901461967525393e-08,
        0.2689513862133026,
        -3.8724797946088074e-07
      ]
    },
    {
      "name": "Right Tip Middle.001_27",
      "rotation": [
        -3.154429464302666e-07,
        9.395583333571267e-08,
        0.13877445459365845,
        0.9903240203857422
      ],
      "scale": [
        1.0000001192092896,
        1.0000001192092896,
        1.0000001192092896
      ],
      "translation": [
        7.95607434156409e-07,
        0.16995374858379364,
        7.724060679947797e-08
      ]
    },
    {
      "children": [
        46
      ],
      "name": "Right Proximal Ring.001_32",
      "rotation": [
        2.476576721477386e-09,
        3.407010922273912e-07,
        -0.0029920549131929874,
        0.9999955296516418
      ],
      "scale": [
        0.9999998807907104,
        0.9999997615814209,
        1.0
      ],
      "translation": [
        -0.04609386995434761,
        0.637696385383606,
        2.79488062915334e-07
      ]
    },
    {
      "children": [
        47
      ],
      "name": "Right Ring .001_31",
      "rotation": [
        -2.4258099529106403e-07,
        4.995526978746057e-07,
        0.14497144520282745,
        0.9894358515739441
      ],
      "scale": [
        1.0,
        0.9999999403953552,
        1.0000001192092896
      ],
      "translation": [
        1.0932319582934724e-07,
        0.268951952457428,
        -3.092926021963649e-07
      ]
    },
    {
      "name": "Right Tip Ring.001_30",
      "rotation": [
        -3.154428327434289e-07,
        9.39558120194306e-08,
        0.13877440989017487,
        0.990324079990387
      ],
      "scale": [
        0.9999999403953552,
        0.9999999403953552,
        1.0
      ],
      "translation": [
        -3.433708855027362e-07,
        0.16995342075824738,
        -1.2172084495887248e-07
      ]
    },
    {
      "children": [
        49
      ],
      "name": "Right Proximal Little.001_35",
      "rotation": [
        2.4765816064586943e-09,
        3.407010922273912e-07,
        -0.0029920549131929874,
        0.9999955296516418
      ],
      "scale": [
        0.9999998807907104,
        0.9999997615814209,
        1.0
      ],
      "translation": [
        -0.15549997985363007,
        0.6117573976516724,
        2.2620628215008765e-07
      ]
    },
    {
      "children": [
        50
      ],
      "name": "Right Middle Little.001_34",
      "rotation": [
        -2.425809668693546e-07,
        4.995526978746057e-07,
        0.14497144520282745,
        0.9894358515739441
      ],
      "scale": [
        1.0,
        0.9999999403953552,
        1.0000001192092896
      ],
      "translation": [
        5.153054303264071e-07,
        0.2689518630504608,
        -4.3694095097635e-07
      ]
    },
    {
      "name": "Right Tip Little.001_33",
      "rotation": [
        -3.154428327434289e-07,
        9.39558120194306e-08,
        0.13877440989017487,
        0.990324079990387
      ],
      "scale": [
        0.9999999403953552,
        0.9999999403953552,
        1.0
      ],
      "translation": [
        2.343093683521147e-07,
        0.16995367407798767,
        1.1053714388253866e-07
      ]
    },
    {
      "children": [
        52
      ],
      "name": "Left Upper Leg_44",
      "rotation": [
        0.7071062922477722,
        -0.0009043088648468256,
        0.7071061730384827,
        0.0009038314456120133
      ],
      "scale": [
        1.0000033378601074,
        1.0000001192092896,
        1.0000001192092896
      ],
      "translation": [
        1.8712339401245117,
        -0.4965255856513977,
        -0.4424290955066681
      ]
    },
    {
      "children": [
        53
      ],
      "name": "Left Lower Leg_43",
      "rotation": [
        0.048048797994852066,
        -5.564724148143796e-08,
        -6.036274413645515e-08,
        0.9988449811935425
      ],
      "translation": [
        6.45911143237754e-07,
        2.1334304809570313,
        -2.2515848741022637e-08
      ]
    },
    {
      "name": "Left Foot_42",
      "rotation": [
        -0.11460572481155396,
        1.0507072545351548e-07,
        -3.3117817821448625e-08,
        0.9934110641479492
      ],
      "scale": [
        1.0,
        0.9999998807907104,
        0.9999999403953552
      ],
      "translation": [
        -8.949224366006092e-07,
        3.511462926864624,
        -2.2238351959913416e-07
      ]
    },
    {
      "children": [
        55
      ],
      "name": "phy1 hip_51",
      "rotation": [
        0.04403524100780487,
        -1.607030133965459e-11,
        1.0863229427116039e-08,
        0.9990299940109253
      ],
      "translation": [
        -0.022558137774467468,
        -2.5266744662412013e-18,
        -1.0613765716552734
      ]
    },
    {
      "children": [
        56
      ],
      "name": "phy2 spine_50",
      "rotation": [
        -0.019558081403374672,
        7.129176155667993e-12,
        -5.027702698612302e-09,
        0.9998087286949158
      ],
      "translation": [
        7.94564414263732e-12,
        0.9439024329185486,
        -3.356037154844671e-07
      ]
    },
    {
      "children": [
        57
      ],
      "name": "phy3 lowchest_49",
      "rotation": [
        -0.017324578016996384,
        -4.510958002153012e-17,
        -4.1305030507032825e-09,
        0.9998499155044556
      ],
      "translation": [
        6.742517655311531e-11,
        1.1210963726043701,
        -1.5228735605887778e-08
      ]
    },
    {
      "children": [
        58
      ],
      "name": "phy4 mid chest_48",
      "rotation": [
        -0.014962059445679188,
        0.0,
        -3.567232287338129e-09,
        0.9998880624771118
      ],
      "scale": [
        1.0,
        1.0,
        0.9999999403953552
      ],
      "translation": [
        -7.72963915096625e-11,
        0.8307508826255798,
        -5.993221918743075e-08
      ]
    },
    {
      "children": [
        59
      ],
      "name": "phy5 high chest_47",
      "rotation": [
        -0.03376985713839531,
        0.0,
        -8.051360467220547e-09,
        0.9994296431541443
      ],
      "scale": [
        1.0,
        1.0000001192092896,
        1.0
      ],
      "translation": [
        2.1960859519776221e-10,
        0.8380860686302185,
        1.438711763057654e-07
      ]
    },
    {
      "children": [
        60
      ],
      "name": "phy6 neck_46",
      "rotation": [
        0.27272453904151917,
        1.292443443798785e-14,
        6.502260418983496e-08,
        0.9620921611785889
      ],
      "translation": [
        3.2870986488298115e-10,
        0.6793211698532104,
        3.036018370039528e-07
      ]
    },
    {
      "name": "phy7 neck_45",
      "rotation": [
        -0.14029046893119812,
        -4.485249625761558e-16,
        -3.344786136949551e-08,
        0.9901103973388672
      ],
      "scale": [
        1.0,
        0.9999999403953552,
        0.9999999403953552
      ],
      "translation": [
        1.8616666541682036e-10,
        0.7333766222000122,
        4.577399295158102e-07
      ]
    },
    {
      "children": [
        62
      ],
      "name": "Right Upper Leg_54",
      "rotation": [
        -0.7071061730384827,
        -0.0009040914010256529,
        -0.7071062326431274,
        0.0009045624756254256
      ],
      "scale": [
        1.0000033378601074,
        1.0000001192092896,
        1.0
      ],
      "translation": [
        -2.02754545211792,
        -0.4965256154537201,
        -0.4424304962158203
      ]
    },
    {
      "children": [
        63
      ],
      "name": "Right Lower Leg.001_53",
      "rotation": [
        -0.04804864898324013,
        -1.5786856977229036e-07,
        -2.4098634199276603e-08,
        0.9988449811935425
      ],
      "scale": [
        1.0,
        1.0,
        0.9999999403953552
      ],
      "translation": [
        5.272896714814124e-07,
        2.1334311962127686,
        1.0209507195213519e-07
      ]
    },
    {
      "name": "Right Foot.001_52",
      "rotation": [
        0.11460534483194351,
        5.026327585255785e-07,
        -7.536783641626243e-08,
        0.993411123752594
      ],
      "translation": [
        7.621973736604559e-07,
        3.511463165283203,
        -1.6974465211205825e-07
      ]
    }
  ],
  "scene": 0,
  "scenes": [
    {
      "name": "Sketchfab_Scene",
      "nodes": [
        0
      ]
    }
  ],
  "skins": [
    {
      "inverseBindMatrices": 5,
      "joints": [
        5,
        8,
        9,
        10,
        11,
        12,
        13,
        14,
        15,
        16,
        17,
        18,
        19,
        20,
        21,
        22,
        23,
        24,
        25,
        26,
        27,
        28,
        29,
        30,
        31,
        32,
        33,
        34,
        35,
        36,
        37,
        38,
        39,
        40,
        41,
        42,
        43,
        44,
        45,
        46,
        47,
        48,
        49,
        50,
        51,
        52,
        53,
        54,
        55,
        56,
        57,
        58,
        59,
        60,
        61,
        62,
        63
      ],
      "skeleton": 5
    }
  ]
}
